# xmcd
#
# Track frame offsets: 
#        150
#        11100
#        21266
#        34655
#        43838
#        56938
#        67942
#        76409
#        94305
#        106995
#        118473
#
# Disc length: 1710 seconds
#
# Revision: 0
# Processed by: cddbd v1.5.2PL0 Copyright (c) Steve Scherf et al.
# Submitted via: ExactAudioCopy v1.3
#
DISCID=9806ac0b
DTITLE=Jussi Syren And The Groundbreakers - Bluegrass Headquarters
DYEAR=2019
DGENRE=Bluegrass
TTITLE0=Stay True To Your Heart
TTITLE1=Bluegrass Headquarters
TTITLE2=Okinawa Waltz
TTITLE3=I Been To Georgia On A Fast Train
TTITLE4=The Ballad Of The White Death
TTITLE5=Drop C Ride
TTITLE6=Walking In Jerusalem Just Like John
TTITLE7=Ode To Bluegrass Mandoline
TTITLE8=Road To Tammelund
TTITLE9=Put The Bible Back In School Rooms
TTITLE10=Bitter Tears
EXTD=
EXTT0=
EXTT1=
EXTT2=
EXTT3=
EXTT4=
EXTT5=
EXTT6=
EXTT7=
EXTT8=
EXTT9=
EXTT10=
PLAYORDER=
